<?xml version="1.0" encoding="utf-8"?>
<!-- Generator: Adobe Illustrator 23.0.5, SVG Export Plug-In . SVG Version: 6.00 Build 0)  -->
<svg version="1.1" id="Layer_1" xmlns="http://www.w3.org/2000/svg" xmlns:xlink="http://www.w3.org/1999/xlink" x="0px" y="0px"
	 viewBox="0 0 32 32" style="enable-background:new 0 0 32 32;" xml:space="preserve">
<style type="text/css">
	.st0{fill:#C3C4BE;}
	.st1{fill:#CEB2D6;}
	.st2{fill:#F37264;}
	.st3{fill:#49B7E9;}
	.st4{fill:#48BA7F;}
</style>
<g>
	<path class="st0" d="M4.58,9.44c-2.48,2.63-4.01,5.27-4.5,6.16c-0.11,0.2-0.11,0.43,0,0.63c0.48,0.89,2.02,3.53,4.5,6.16
		c0.41,0.43,1.13,0.14,1.13-0.45V9.89C5.71,9.3,4.98,9.01,4.58,9.44z"/>
	<path class="st0" d="M26.54,10.52v10.77c0,0.74,0.91,1.09,1.4,0.54c2.12-2.37,3.47-4.65,3.96-5.54c0.13-0.24,0.13-0.53,0-0.77
		c-0.49-0.89-1.83-3.17-3.96-5.54C27.45,9.43,26.54,9.78,26.54,10.52z"/>
	<path class="st1" d="M18.01,14.91h5.08c0.56,0,1.01-0.45,1.01-1.01V7.14c0-1.09-0.62-2.1-1.6-2.56c-1.36-0.64-2.83-1.12-4.41-1.34
		C17.51,3.15,17,3.59,17,4.17v9.72C17,14.45,17.45,14.91,18.01,14.91z"/>
	<path class="st2" d="M15,13.9V4.2c0-0.59-0.53-1.05-1.11-0.96c-1.45,0.21-2.8,0.63-4.06,1.19c-1.02,0.46-1.69,1.47-1.69,2.6v6.9
		c0,0.54,0.44,0.98,0.98,0.98h4.86C14.55,14.91,15,14.46,15,13.9z"/>
	<path class="st3" d="M17,17.91v9.66c0,0.62,0.55,1.09,1.16,1c1.55-0.23,3-0.7,4.34-1.33c0.99-0.47,1.6-1.47,1.6-2.56v-6.76
		c0-0.55-0.45-1-1-1h-5.09C17.45,16.9,17,17.35,17,17.91z"/>
	<path class="st4" d="M14,16.9H9.15c-0.55,0-1,0.45-1,1v6.87c0,1.12,0.66,2.14,1.69,2.6c1.25,0.56,2.6,0.98,4.03,1.19
		c0.6,0.09,1.13-0.38,1.13-0.98v-9.68C15,17.35,14.55,16.9,14,16.9z"/>
</g>
</svg>
