<?xml version="1.0" encoding="utf-8"?>
<!-- Generator: Adobe Illustrator 23.0.5, SVG Export Plug-In . SVG Version: 6.00 Build 0)  -->
<svg version="1.1" id="Layer_1" xmlns="http://www.w3.org/2000/svg" xmlns:xlink="http://www.w3.org/1999/xlink" x="0px" y="0px"
	 viewBox="0 0 392.74 392.74" style="enable-background:new 0 0 392.74 392.74;" xml:space="preserve">
<style type="text/css">
	.st0{stroke:#010101;stroke-width:1.1322;stroke-linecap:round;stroke-linejoin:round;}
	.st1{stroke:#010101;stroke-width:1.1983;stroke-linecap:round;stroke-linejoin:round;}
	.st2{fill:#CEB2D5;}
	.st3{fill:#F37264;}
	.st4{fill:#45B7E9;}
	.st5{fill:#C2C4BE;}
	.st6{fill:#47BA7E;}
</style>
<path class="st5" d="M74.15,134.84c-26.5,28.11-42.93,56.35-48.11,65.86c-1.14,2.1-1.14,4.61,0,6.71
	c5.18,9.5,21.61,37.75,48.11,65.86c4.34,4.61,12.1,1.5,12.1-4.83V139.67C86.25,133.34,78.49,130.23,74.15,134.84z"/>
<path class="st5" d="M309.18,146.42v115.25c0,7.87,9.73,11.65,14.99,5.78c22.72-25.37,37.13-49.78,42.35-59.26
	c1.42-2.58,1.42-5.7,0-8.29c-5.22-9.48-19.63-33.9-42.35-59.26C318.92,134.77,309.18,138.55,309.18,146.42z"/>
<path class="st2" d="M217.92,193.37h54.32c5.98,0,10.83-4.85,10.83-10.83v-72.3c0-11.67-6.62-22.43-17.17-27.41
	c-14.52-6.85-30.27-11.94-47.19-14.37c-6.13-0.88-11.63,3.85-11.63,10.04v104.01C207.07,188.51,211.93,193.37,217.92,193.37z"/>
<path class="st3" d="M185.71,182.57V78.81c0-6.33-5.62-11.2-11.88-10.28c-15.47,2.27-29.97,6.76-43.43,12.78
	c-10.96,4.9-18.03,15.76-18.03,27.77l0,73.78c0,5.8,4.7,10.51,10.51,10.51h52.04C180.87,193.37,185.71,188.53,185.71,182.57z"/>
<path class="st4" d="M207.07,225.49v103.32c0,6.6,5.87,11.68,12.4,10.71c16.63-2.47,32.12-7.51,46.43-14.26
	c10.56-4.98,17.17-15.74,17.17-27.41v-72.38c0-5.93-4.81-10.74-10.74-10.74h-54.48C211.89,214.72,207.07,219.55,207.07,225.49z"/>
<path class="st6" d="M174.99,214.72h-51.89c-5.93,0-10.74,4.81-10.74,10.74l0,73.55c0,12,7.07,22.86,18.03,27.77
	c13.39,5.99,27.8,10.46,43.17,12.74c6.4,0.95,12.14-4.04,12.14-10.51V225.44C185.71,219.52,180.91,214.72,174.99,214.72z"/>
</svg>
