<?xml version="1.0" encoding="utf-8"?>
<!-- Generator: Adobe Illustrator 23.0.5, SVG Export Plug-In . SVG Version: 6.00 Build 0)  -->
<svg version="1.1" id="Layer_1" xmlns="http://www.w3.org/2000/svg" xmlns:xlink="http://www.w3.org/1999/xlink" x="0px" y="0px"
	 viewBox="0 0 392.7 392.7" style="enable-background:new 0 0 392.7 392.7;" xml:space="preserve">
<style type="text/css">
	.st0{fill:#192534;}
	.st1{stroke:#010101;stroke-width:1.1322;stroke-linecap:round;stroke-linejoin:round;}
	.st2{stroke:#010101;stroke-width:1.1983;stroke-linecap:round;stroke-linejoin:round;}
	.st3{fill:#CEB2D5;}
	.st4{fill:#F37264;}
	.st5{fill:#45B7E9;}
	.st6{fill:#85CBA1;}
	.st7{fill:#C2C4BE;}
	.st8{fill:#47BA7E;}
</style>
<path d="M74.2,134.8c-26.5,28.1-42.9,56.4-48.1,65.9c-1.1,2.1-1.1,4.6,0,6.7c5.2,9.5,21.6,37.8,48.1,65.9c4.3,4.6,12.1,1.5,12.1-4.8
	V139.7C86.3,133.3,78.5,130.2,74.2,134.8z"/>
<path d="M309.2,146.4v115.2c0,7.9,9.7,11.6,15,5.8c22.7-25.4,37.1-49.8,42.4-59.3c1.4-2.6,1.4-5.7,0-8.3
	c-5.2-9.5-19.6-33.9-42.4-59.3C318.9,134.8,309.2,138.6,309.2,146.4z"/>
<path d="M217.9,193.4h54.3c6,0,10.8-4.9,10.8-10.8v-72.3c0-11.7-6.6-22.4-17.2-27.4c-14.5-6.8-30.3-11.9-47.2-14.4
	c-6.1-0.9-11.6,3.8-11.6,10v104C207.1,188.5,211.9,193.4,217.9,193.4z"/>
<path d="M185.7,182.6V78.8c0-6.3-5.6-11.2-11.9-10.3c-15.5,2.3-30,6.8-43.4,12.8c-11,4.9-18,15.8-18,27.8v73.8
	c0,5.8,4.7,10.5,10.5,10.5h52C180.9,193.4,185.7,188.5,185.7,182.6z"/>
<path d="M207.1,225.5v103.3c0,6.6,5.9,11.7,12.4,10.7c16.6-2.5,32.1-7.5,46.4-14.3c10.6-5,17.2-15.7,17.2-27.4v-72.4
	c0-5.9-4.8-10.7-10.7-10.7h-54.5C211.9,214.7,207.1,219.6,207.1,225.5z"/>
<path d="M175,214.7h-51.9c-5.9,0-10.7,4.8-10.7,10.7V299c0,12,7.1,22.9,18,27.8c13.4,6,27.8,10.5,43.2,12.7c6.4,1,12.1-4,12.1-10.5
	V225.4C185.7,219.5,180.9,214.7,175,214.7z"/>
</svg>
